# xmcd CD database file
#
# Track frame offsets:
#	150
#	18671
#	30883
#	49429
#	66034
#	84839
#	96904
#	108403
#
# Disc length: 1645 seconds
#
# Revision: 1
# Processed by: cddbd v1.5.1PL0 Copyright (c) Steve Scherf et al.
# Submitted via: jetAudio 5
#
DISCID=5c066b08
DTITLE=Kevin Sysyn - 21st Century Cowboys Everything For Christmas
DYEAR=1900
DGENRE=
TTITLE0=I want Everything For Christmas
TTITLE1=Wake Up, Wake Up
TTITLE2=Lets Put Up The Tree
TTITLE3=Ridin' Shotgun With Santa
TTITLE4=Christmas Isn't Christmas
TTITLE5=Rock Me Santa
TTITLE6=Another Christmas Eve
TTITLE7=Let's Do Santa's Boogie
EXTD=
EXTT0=
EXTT1=
EXTT2=
EXTT3=
EXTT4=
EXTT5=
EXTT6=
EXTT7=
PLAYORDER=
